<svg id="Layer_1" data-name="Layer 1" xmlns="http://www.w3.org/2000/svg" viewBox="0 0 461.79 87.98"><defs><style>.cls-1{fill:#231f20;}.cls-2{fill:#ed1c24;}</style></defs><path class="cls-1" d="M60.74,293.45H82.21l34.67,67.4-1.54,1.58v-69h16.8v87.92h-21.6L76,315l1.54-1.58v68H60.74Z" transform="translate(-60.74 -293.45)"/><rect class="cls-2" x="119.98" y="0.13" width="22.71" height="87.86"/><rect class="cls-2" x="181.07" y="293.21" width="23" height="88" transform="translate(-205.38 236.34) rotate(-90)"/><path class="cls-1" d="M257.6,293.63H266l13.61,28-.61.66V293.63h6.59v36.55h-8.48l-13.56-27.6.61-.65v28.25H257.6Z" transform="translate(-60.74 -293.45)"/><path class="cls-1" d="M297.58,329.25a8.91,8.91,0,0,1-3.84-3.89,13.11,13.11,0,0,1-1.33-6.15V315a12.83,12.83,0,0,1,1.33-6.07,8.87,8.87,0,0,1,3.84-3.85,14.78,14.78,0,0,1,12.21,0,8.87,8.87,0,0,1,3.84,3.85A13,13,0,0,1,315,315v4.33a13.05,13.05,0,0,1-1.33,6.1,9,9,0,0,1-3.84,3.86,14.68,14.68,0,0,1-12.21,0Zm9.32-6.53a4.73,4.73,0,0,0,1.16-3.43V315a4.65,4.65,0,0,0-1.16-3.39,4.25,4.25,0,0,0-3.24-1.21,4.2,4.2,0,0,0-3.21,1.21,4.73,4.73,0,0,0-1.14,3.39v4.33a4.86,4.86,0,0,0,1.13,3.43,4.15,4.15,0,0,0,3.22,1.22A4.22,4.22,0,0,0,306.9,322.72Z" transform="translate(-60.74 -293.45)"/><path class="cls-1" d="M321.24,304.09h7.4v26.12h-7.4Zm13.46,6.52a5,5,0,0,0-1.68-.25,4,4,0,0,0-3.23,1.34,5.58,5.58,0,0,0-1.15,3.74l-.53-6.79a9.37,9.37,0,0,1,2.81-3.64,6.17,6.17,0,0,1,3.78-1.29,8.17,8.17,0,0,1,3,.51,6.51,6.51,0,0,1,2.3,1.52l-4,5.61A3.3,3.3,0,0,0,334.7,310.61Z" transform="translate(-60.74 -293.45)"/><path class="cls-1" d="M341.22,304.09H354V310H341.22Zm4.29,24.49a7.38,7.38,0,0,1-1.6-5.17V296.5h6.89v25.2a2.51,2.51,0,0,0,.38,1.48,1.29,1.29,0,0,0,1.11.51H354v6.64h-3.47C348.25,330.33,346.57,329.75,345.51,328.58Z" transform="translate(-60.74 -293.45)"/><path class="cls-1" d="M360,293.63h6.89v36.58H360Zm15.09,20.75a4,4,0,0,0-1.09-3,4.28,4.28,0,0,0-3.11-1.06,3.92,3.92,0,0,0-3,1.07,4.13,4.13,0,0,0-1,3l-.53-5.78a9.72,9.72,0,0,1,2.83-3.7,6.74,6.74,0,0,1,4.14-1.23,7.76,7.76,0,0,1,6.39,2.78q2.26,2.78,2.26,7.86v15.85h-6.89Z" transform="translate(-60.74 -293.45)"/><path class="cls-1" d="M393.09,293.63h26.82v6.64H393.09Zm10,3H410v33.59h-6.9Z" transform="translate(-60.74 -293.45)"/><path class="cls-1" d="M424.4,329.21a9.3,9.3,0,0,1-4.09-4,13.2,13.2,0,0,1-1.41-6.32v-2.95a14.84,14.84,0,0,1,1.35-6.61,9.4,9.4,0,0,1,3.92-4.18,12.61,12.61,0,0,1,6.23-1.43,10,10,0,0,1,5.86,1.71,10.43,10.43,0,0,1,3.71,5,21.58,21.58,0,0,1,1.27,7.86V320H423.38v-4.66H435l-.07-.6a6.17,6.17,0,0,0-1.42-3.5A4,4,0,0,0,430.4,310a5,5,0,0,0-3.86,1.49,5.92,5.92,0,0,0-1.37,4.2V319a5.5,5.5,0,0,0,1.49,4.12,5.73,5.73,0,0,0,4.19,1.46,7.93,7.93,0,0,0,2.74-.49,8.46,8.46,0,0,0,2.47-1.39l4.5,4a15,15,0,0,1-4.58,2.88,14.75,14.75,0,0,1-11.58-.36Z" transform="translate(-60.74 -293.45)"/><path class="cls-1" d="M454,315.79l4.1,4.73-6,9.69h-7.32Zm1.25,3.62-10.08-15.32h7.59L459,314.63l10.24,15.58h-7.58Zm1.19-6.06,4.83-9.26h7.59l-8.37,14.09Z" transform="translate(-60.74 -293.45)"/><path class="cls-1" d="M474.74,328.58q-2.08-2-2.08-6.07A7.13,7.13,0,0,1,475,316.7q2.33-1.93,7-1.94h6.54l.35,5.26H482a3.74,3.74,0,0,0-2.34.61,2.26,2.26,0,0,0-.78,1.88,2.08,2.08,0,0,0,1,1.9,5.68,5.68,0,0,0,3,.61,10.22,10.22,0,0,0,4.11-.62,2.07,2.07,0,0,0,1.35-2l.52,3.8a3.56,3.56,0,0,1-1.29,2.39,7.36,7.36,0,0,1-2.87,1.47,13.12,13.12,0,0,1-3.64.49C478.21,330.58,476.12,329.92,474.74,328.58Zm13.55-14.93a3.42,3.42,0,0,0-1.21-2.79,5.34,5.34,0,0,0-3.42-1,9.09,9.09,0,0,0-2.9.48,8.65,8.65,0,0,0-2.54,1.33l-4.27-4.2a10.25,10.25,0,0,1,4.12-2.78,15.7,15.7,0,0,1,5.69-1,13.56,13.56,0,0,1,5.83,1.14,8.29,8.29,0,0,1,3.69,3.32,10.21,10.21,0,0,1,1.27,5.25v16.78h-6.26Z" transform="translate(-60.74 -293.45)"/><path class="cls-1" d="M506.78,330.17a20.92,20.92,0,0,1-4.16-1.22A15.24,15.24,0,0,1,499.2,327l4.25-5.31a16.76,16.76,0,0,0,3.95,1.87,13.23,13.23,0,0,0,3.93.65,10.34,10.34,0,0,0,3.75-.54c.89-.36,1.33-.86,1.33-1.5a1.58,1.58,0,0,0-.58-1.33,3.47,3.47,0,0,0-1.48-.64,23,23,0,0,0-2.54-.34l-.92-.1-.94-.1-.22,0h-.21a30,30,0,0,1-4.68-.93,6,6,0,0,1-3-2.13,7.3,7.3,0,0,1-1.22-4.57,7.85,7.85,0,0,1,1.25-4.47,7.72,7.72,0,0,1,3.65-2.83,15.35,15.35,0,0,1,5.79-1,19.71,19.71,0,0,1,4,.4,20.06,20.06,0,0,1,3.79,1.16,17.84,17.84,0,0,1,3.34,1.81l-4.1,5a16.82,16.82,0,0,0-3.57-1.48,13.15,13.15,0,0,0-3.57-.53,8.77,8.77,0,0,0-3.25.48c-.77.32-1.15.76-1.15,1.33a1.12,1.12,0,0,0,.61,1,4.42,4.42,0,0,0,1.54.53c.61.11,1.5.23,2.68.36l.45.05.45.06.23,0a.73.73,0,0,1,.22,0,30.88,30.88,0,0,1,5,.9,6.48,6.48,0,0,1,3.26,2.22,7.63,7.63,0,0,1,1.34,4.88,8,8,0,0,1-1.31,4.65,8.13,8.13,0,0,1-3.82,3,16.35,16.35,0,0,1-6.06,1A24.3,24.3,0,0,1,506.78,330.17Z" transform="translate(-60.74 -293.45)"/><path class="cls-1" d="M262.93,379.1a10.68,10.68,0,0,1-4.53-4.66,16.06,16.06,0,0,1-1.56-7.38V357a16.09,16.09,0,0,1,1.56-7.38,10.76,10.76,0,0,1,4.53-4.67,14.84,14.84,0,0,1,7.15-1.61,12.65,12.65,0,0,1,6.16,1.49,12.09,12.09,0,0,1,4.49,4.31,18.6,18.6,0,0,1,2.45,6.83H276a9.22,9.22,0,0,0-1.25-3.09,6,6,0,0,0-2-2,5.33,5.33,0,0,0-2.67-.68,6.43,6.43,0,0,0-3.3.8,5.15,5.15,0,0,0-2.08,2.31A8.69,8.69,0,0,0,264,357v10a8.58,8.58,0,0,0,.71,3.65,5.17,5.17,0,0,0,2.08,2.3,6.43,6.43,0,0,0,3.3.79,5.55,5.55,0,0,0,2.71-.66,5.75,5.75,0,0,0,2-1.95,9.16,9.16,0,0,0,1.21-3.12h7.14a18.86,18.86,0,0,1-2.48,6.83,12.2,12.2,0,0,1-4.47,4.31,12.6,12.6,0,0,1-6.15,1.48A15,15,0,0,1,262.93,379.1Z" transform="translate(-60.74 -293.45)"/><path class="cls-1" d="M295.86,371.69a1.93,1.93,0,0,0,.54,1.47,2.18,2.18,0,0,0,1.55.52h1.16v6.64h-3.53a6.48,6.48,0,0,1-4.88-1.81A7.12,7.12,0,0,1,289,373.4V343.74h6.89Z" transform="translate(-60.74 -293.45)"/><path class="cls-1" d="M303.51,343.74h6.89v6.89h-6.89Zm0,10.46h6.89v26.12h-6.89Z" transform="translate(-60.74 -293.45)"/><path class="cls-1" d="M316.82,354.2h6.89v26.12h-6.89Zm15.09,10.29a3.91,3.91,0,0,0-1.09-3,4.28,4.28,0,0,0-3.11-1.06,4,4,0,0,0-3,1.07,4.13,4.13,0,0,0-1,3l-.53-5.78a9.72,9.72,0,0,1,2.83-3.7,6.74,6.74,0,0,1,4.14-1.23,7.76,7.76,0,0,1,6.39,2.78q2.26,2.77,2.26,7.86v15.85h-6.89Z" transform="translate(-60.74 -293.45)"/><path class="cls-1" d="M345.22,343.74h6.89v6.89h-6.89Zm0,10.46h6.89v26.12h-6.89Z" transform="translate(-60.74 -293.45)"/><path class="cls-1" d="M363.19,379.27a9.36,9.36,0,0,1-4-4.13,14.23,14.23,0,0,1-1.39-6.55V365.8a13.91,13.91,0,0,1,1.39-6.48,9.4,9.4,0,0,1,4-4.08,13.45,13.45,0,0,1,6.38-1.41,16,16,0,0,1,4,.49,12.56,12.56,0,0,1,3.41,1.42,9.1,9.1,0,0,1,2.51,2.26l-4.45,4.33a6.89,6.89,0,0,0-2.24-1.37,7.38,7.38,0,0,0-2.69-.49,5.55,5.55,0,0,0-4,1.39,5.25,5.25,0,0,0-1.43,3.94v2.79a5.42,5.42,0,0,0,1.43,4,5.48,5.48,0,0,0,4,1.42,6.94,6.94,0,0,0,2.72-.53,6.37,6.37,0,0,0,2.21-1.5l4.45,4.57a9.27,9.27,0,0,1-2.54,2.23,12.4,12.4,0,0,1-3.39,1.4,16.31,16.31,0,0,1-4,.47A13.33,13.33,0,0,1,363.19,379.27Z" transform="translate(-60.74 -293.45)"/></svg>